<svg xmlns="http://www.w3.org/2000/svg" viewBox="0 0 640 480">
  <path fill="#012169" d="M0 0h640v480H0z"/>
  <path fill="#FFF" d="M75 0h120l153 118V0h88v118L589 0h131L440 175v105L720 480H591L401 343v137h-88V343L101 480H-31l310-200V175L-31 0H101l212 142z"/>
  <path fill="#C8102E" d="M424 280 720 480v-39L469 280h-45zm-184 3L-31 480h58l213-153v-44zm48-142L0 0v39l219 162h69zm110-12L720 0h-58L449 118z"/>
  <path fill="#FFF" d="M256 0h128v480H256zM0 176h640v128H0z"/>
  <path fill="#C8102E" d="M0 208h640v64H0zM288 0h64v480h-64z"/>
</svg>
