<svg xmlns="http://www.w3.org/2000/svg" width="1200" height="675" viewBox="0 0 1200 675" role="img" aria-label="Restaurantes">
  <defs>
    <linearGradient id="bg" x1="0" y1="0" x2="1" y2="1">
      <stop offset="0" stop-color="#f3f0ff"/>
      <stop offset="1" stop-color="#ffffff"/>
    </linearGradient>
    <linearGradient id="acc" x1="0" y1="0" x2="1" y2="0">
      <stop offset="0" stop-color="#005f8f"/>
      <stop offset="1" stop-color="#6cc24a"/>
    </linearGradient>
    <filter id="shadow" x="-20%" y="-20%" width="140%" height="140%">
      <feDropShadow dx="0" dy="10" stdDeviation="18" flood-color="#0e1e3a" flood-opacity="0.18"/>
    </filter>
  </defs>
  <rect width="1200" height="675" fill="url(#bg)"/>
  <path d="M0 520 C 240 440, 430 610, 690 520 C 925 440, 1015 560, 1200 510 L 1200 675 L 0 675 Z" fill="#ece8ff"/>
  <g filter="url(#shadow)">
    <circle cx="600" cy="305" r="130" fill="url(#acc)"/>
  </g>
  <g fill="none" stroke="#ffffff" stroke-width="18" stroke-linecap="round" stroke-linejoin="round">
    <path d="M545 240v70"/>
    <path d="M545 240c-15 15-15 30 0 45"/>
    <path d="M570 240v70"/>
    <path d="M595 240v70"/>
    <path d="M620 240v170"/>
    <path d="M655 240c35 35 35 70 0 105"/>
    <path d="M655 240v170"/>
    <path d="M520 420h160"/>
  </g>
  <text x="600" y="575" text-anchor="middle" font-family="Segoe UI, Arial" font-size="44" font-weight="700" fill="#182236">Restaurantes</text>
  <text x="600" y="620" text-anchor="middle" font-family="Segoe UI, Arial" font-size="26" fill="#5b6472">POS • Upselling • Forecast</text>
</svg>
