<svg xmlns="http://www.w3.org/2000/svg" width="1200" height="675" viewBox="0 0 1200 675" role="img" aria-label="Gobierno">
  <defs>
    <linearGradient id="bg" x1="0" y1="0" x2="1" y2="1">
      <stop offset="0" stop-color="#eef1f8"/>
      <stop offset="1" stop-color="#ffffff"/>
    </linearGradient>
    <linearGradient id="acc" x1="0" y1="0" x2="1" y2="0">
      <stop offset="0" stop-color="#005f8f"/>
      <stop offset="1" stop-color="#6cc24a"/>
    </linearGradient>
    <filter id="shadow" x="-20%" y="-20%" width="140%" height="140%">
      <feDropShadow dx="0" dy="10" stdDeviation="18" flood-color="#0e1e3a" flood-opacity="0.18"/>
    </filter>
  </defs>
  <rect width="1200" height="675" fill="url(#bg)"/>
  <path d="M0 520 C 210 450, 420 595, 700 520 C 940 455, 1025 565, 1200 515 L 1200 675 L 0 675 Z" fill="#e6ebf5"/>
  <g filter="url(#shadow)">
    <circle cx="600" cy="305" r="130" fill="url(#acc)"/>
  </g>
  <g fill="none" stroke="#ffffff" stroke-width="18" stroke-linecap="round" stroke-linejoin="round">
    <path d="M480 320h240"/>
    <path d="M510 320v95"/>
    <path d="M570 320v95"/>
    <path d="M630 320v95"/>
    <path d="M690 320v95"/>
    <path d="M470 415h260"/>
    <path d="M520 260l80-50 80 50"/>
  </g>
  <text x="600" y="575" text-anchor="middle" font-family="Segoe UI, Arial" font-size="44" font-weight="700" fill="#182236">Gobierno</text>
  <text x="600" y="620" text-anchor="middle" font-family="Segoe UI, Arial" font-size="26" fill="#5b6472">Trámites • Turnos • Control</text>
</svg>
