<svg xmlns="http://www.w3.org/2000/svg" width="1200" height="675" viewBox="0 0 1200 675" role="img" aria-label="Agro">
  <defs>
    <linearGradient id="bg" x1="0" y1="0" x2="1" y2="1">
      <stop offset="0" stop-color="#effff0"/>
      <stop offset="1" stop-color="#ffffff"/>
    </linearGradient>
    <linearGradient id="acc" x1="0" y1="0" x2="1" y2="0">
      <stop offset="0" stop-color="#005f8f"/>
      <stop offset="1" stop-color="#6cc24a"/>
    </linearGradient>
    <filter id="shadow" x="-20%" y="-20%" width="140%" height="140%">
      <feDropShadow dx="0" dy="10" stdDeviation="18" flood-color="#0e1e3a" flood-opacity="0.18"/>
    </filter>
  </defs>
  <rect width="1200" height="675" fill="url(#bg)"/>
  <path d="M0 520 C 240 450, 420 610, 690 520 C 950 435, 1020 565, 1200 500 L 1200 675 L 0 675 Z" fill="#e7f7e9"/>
  <g filter="url(#shadow)">
    <circle cx="600" cy="305" r="130" fill="url(#acc)"/>
  </g>
  <g fill="none" stroke="#ffffff" stroke-width="18" stroke-linecap="round" stroke-linejoin="round">
    <path d="M600 415c-70-40-110-105-110-155 0-35 25-60 60-60 25 0 45 12 50 25 5-13 25-25 50-25 35 0 60 25 60 60 0 50-40 115-110 155Z"/>
    <path d="M600 415v-85"/>
  </g>
  <text x="600" y="575" text-anchor="middle" font-family="Segoe UI, Arial" font-size="44" font-weight="700" fill="#182236">Agro</text>
  <text x="600" y="620" text-anchor="middle" font-family="Segoe UI, Arial" font-size="26" fill="#5b6472">Riego • Visión • Logística</text>
</svg>
